<?xml version="1.0" encoding="UTF-8"?>
<svg width="32" height="32" viewBox="0 0 32 32" fill="none" xmlns="http://www.w3.org/2000/svg">
  <!-- Trunk -->
  <path d="M14 32L18 32L17 20L15 20L14 32Z" fill="#5D4037"/>
  <!-- Leaves -->
  <path d="M16 4C16 4 12 8 10 12C8 16 8 20 8 20C8 20 12 16 14 14C16 12 16 12 16 12V4Z" fill="#2E7D32"/>
  <path d="M16 4C16 4 20 8 22 12C24 16 24 20 24 20C24 20 20 16 18 14C16 12 16 12 16 12V4Z" fill="#2E7D32"/>
  <path d="M16 8C16 8 13 11 12 14C11 17 11 20 11 20C11 20 14 17 15 15C16 13 16 13 16 13V8Z" fill="#388E3C"/>
  <path d="M16 8C16 8 19 11 20 14C21 17 21 20 21 20C21 20 18 17 17 15C16 13 16 13 16 13V8Z" fill="#388E3C"/>
  <path d="M16 2C16 2 14 4 13 7C12 10 12 12 12 12C12 12 14 10 15 8C16 6 16 6 16 6V2Z" fill="#43A047"/>
  <path d="M16 2C16 2 18 4 19 7C20 10 20 12 20 12C20 12 18 10 17 8C16 6 16 6 16 6V2Z" fill="#43A047"/>
</svg>
